<?xml version="1.0" encoding="utf-8"?>
<svg version="1.1" id="レイヤー_1" xmlns="http://www.w3.org/2000/svg" xmlns:xlink="http://www.w3.org/1999/xlink" x="0px"
	 y="0px" viewBox="0 0 628.5 135" style="enable-background:new 0 0 628.5 135;" xml:space="preserve">
<g>
	<g>
		<path d="M-183.5-637.2c1.6,0,3-2.3,3-5v-1.4c0-2.8-2.7-5.4-5.5-5.4h-14.3c-2.8,0-5.2,2.6-5.2,5.4v1.4c0,2.8,1.3,5,3,5s3,2.3,3,5
			v62.4c0,2.8-1.3,5-3,5s-3,2.3-3,5v1.4c0,2.8,1.7,4.6,3.6,4.6c1.8,0,5.6,0,8.3,0h2.1c2.8,0,6.3,0,7.8,0c1.5,0,3.3-1.8,3.3-4.6v-1.4
			c0-2.8-1.4-5-3-5s-3-2.3-3-5v-62.4C-186.5-635-185-637.2-183.5-637.2z"/>
	</g>
	<g>
		<path d="M-219.5-559.4c0-2.8-2.5-4.6-5.2-4.6h-1.4c-2.8,0-5.4-2.7-5.4-5.4v-62.9c0-2.8,2.7-4.7,5.4-4.7h1.4c2.8,0,5.2-2.5,5.2-5.3
			v-1.4c0-2.8-2.5-5.4-5.2-5.4h-13.8c-2.8,0-5,2.6-5,5.4v85.1c0,2.8,2.3,4.6,5,4.6h13.8c2.8,0,5.2-1.8,5.2-4.6V-559.4z"/>
	</g>
	<g>
		<path d="M-165.5-559.4c0-2.8,1.8-4.6,4.5-4.6h1.4c2.8,0,5.1-2.7,5.1-5.4v-62.9c0-2.8-2.4-4.7-5.1-4.7h-1.4c-2.8,0-4.5-2.5-4.5-5.3
			v-1.4c0-2.8,1.8-5.4,4.5-5.4h13.8c2.8,0,4.7,2.6,4.7,5.4v85.1c0,2.8-2,4.6-4.7,4.6H-161c-2.8,0-4.5-1.8-4.5-4.6V-559.4z"/>
	</g>
</g>
<text transform="matrix(1 0 0 1 -8.2775 -591.7618)" style="font-family:'MVBoli'; font-size:138.487px;">Image Diff</text>
<g fill="white">
	<path d="M14.9,66.9c0.4-1.8,0.9-3.7,1.5-5.8c0.6-2.1,1.2-4.4,1.8-6.7c0.7-2.3,1.3-4.6,2-7c0.7-2.3,1.3-4.6,2-6.8
		c0.7-2.2,1.3-4.2,1.8-6.1c0.5-1.9,1-3.5,1.4-4.8c0.9-2.9,1.7-5.9,2.4-8.8c0.8-3,1.5-6.1,2.2-9.3c0.9-1.8,2.1-3,3.7-3.8
		c1.5-0.7,3.2-1.1,5-1.1c1.4,0.8,2.6,1.8,3.4,3.1c0.8,1.3,1.3,2.8,1.3,4.5c0,1.2-0.2,2.5-0.6,4c-0.4,1.5-0.9,3.1-1.5,4.9
		c-0.6,1.7-1.2,3.6-2,5.5c-0.7,1.9-1.4,3.9-2.1,5.9c-1.3,3.7-2.5,7.4-3.8,11.1c-1.3,3.7-2.5,7.6-3.7,11.7c-0.3,1.1-0.7,2.2-1,3.2
		c-0.4,1.1-0.7,2.3-1.1,3.5c-0.4,1.3-0.8,2.7-1.3,4.2c-0.5,1.6-0.9,3.3-1.4,5.4c-0.5,2.4-1,4.8-1.4,7.2c-0.4,2.4-0.8,4.8-1.1,7.3
		c-0.4,2.4-0.8,4.9-1.2,7.4c-0.5,2.5-1,5-1.6,7.5c-0.2,0.9-0.6,1.7-1.2,2.4c-0.6,0.7-1.2,1.3-1.9,1.8c-0.7,0.5-1.5,0.9-2.3,1.1
		s-1.6,0.4-2.3,0.4c-0.7,0-1.4-0.1-2.1-0.2c-0.7-0.1-1.2-0.4-1.5-0.8c-0.5-0.6-1-1.2-1.3-2c-0.3-0.7-0.5-1.5-0.5-2.3
		c0-0.2,0-0.4,0-0.6c0-0.2,0.1-0.4,0.1-0.6L14.9,66.9z"/>
	<path d="M45.5,101.2c1.4-5.3,2.7-10.2,3.9-14.7c1.3-4.6,2.5-8.9,3.7-13.1c1.2-4.2,2.4-8.2,3.5-12.1c1.1-3.9,2.2-7.9,3.2-12
		c0.4-1.6,0.6-3.1,0.7-4.6c0.1-1.5,0.3-3,0.6-4.6c0.2-0.5,0.5-1,1-1.5s1-0.8,1.6-1.1c0.6-0.3,1.2-0.6,1.9-0.7
		c0.7-0.2,1.3-0.3,1.9-0.3c1.3,0,2.3,0.1,3.1,0.4c0.8,0.3,1.5,0.7,2,1.2c0.5,0.5,0.9,1.1,1.1,1.8c0.2,0.7,0.3,1.5,0.3,2.3
		c0,1.5-0.2,3.1-0.7,4.6c-0.5,1.6-1.1,3.3-1.8,5.1c2.1-1.7,4.3-3.2,6.5-4.7s4.5-2.8,6.9-3.9c2.4-1.1,4.8-2,7.3-2.7
		c2.5-0.7,5-1,7.7-1c1.2,0,2.4,0.2,3.7,0.6c1.2,0.4,2.3,1,3.3,1.8c1,0.8,1.8,1.9,2.4,3.2c0.7,1.3,1,2.9,1.1,4.8c1.9-1.3,3.9-2.6,6-4
		c2.1-1.3,4.2-2.5,6.3-3.6c2.1-1.1,4.3-1.9,6.4-2.6c2.1-0.7,4.2-1,6.3-1c3,0,5.5,0.4,7.5,1.2c2,0.8,3.5,1.8,4.7,3.2
		c1.1,1.3,2,2.9,2.4,4.6c0.5,1.8,0.7,3.6,0.7,5.6c0,2.2-0.2,4.4-0.6,6.7c-0.4,2.3-0.9,4.5-1.4,6.6c-1.3,5.2-2.8,10.2-4.4,14.8
		c-1.6,4.7-3.4,9.4-5.3,14.2c-0.5,1.1-0.9,2.3-1.4,3.6c-0.5,1.3-1.1,2.4-1.7,3.5c-0.7,1.1-1.4,1.9-2.3,2.6c-0.9,0.7-1.9,1-3.1,1
		c-2.7,0-4.5-0.5-5.5-1.4c-1-0.9-1.5-2.2-1.5-3.9c0-0.4,0-1,0.1-1.6c0-0.6,0.2-1.1,0.3-1.7c0.2-0.7,0.6-1.7,1.2-2.9
		c0.6-1.3,1.3-2.7,2.1-4.2c0.7-1.5,1.5-3,2.2-4.5c0.7-1.5,1.3-2.8,1.6-4c0.6-1.9,1.3-4.2,2.1-6.7c0.8-2.5,1.5-5.1,2.3-7.7
		c0.7-2.6,1.3-5,1.8-7.4c0.5-2.3,0.7-4.2,0.7-5.6c0-0.7-0.1-1.4-0.2-2c-0.1-0.7-0.4-1.3-0.7-1.8c-0.3-0.5-0.8-0.9-1.4-1.2
		c-0.6-0.3-1.4-0.5-2.3-0.5c-1.4,0-3,0.4-4.8,1.2c-1.9,0.8-3.8,1.8-5.8,3c-2,1.2-4,2.6-5.8,4.2c-1.9,1.6-3.5,3.1-4.9,4.6
		c-0.9,1.1-1.8,2-2.7,2.6c-0.9,0.7-1.7,1.2-2.6,1.6c-0.1,0.2-0.3,0.8-0.7,1.8c-0.4,1-0.8,2.2-1.3,3.7c-0.5,1.4-1,3-1.6,4.6
		c-0.5,1.6-1,3.2-1.5,4.6c-0.5,1.4-0.9,2.6-1.2,3.6c-0.3,1-0.5,1.5-0.5,1.6c-0.3,1.3-0.6,2.6-0.8,3.9c-0.2,1.3-0.4,2.6-0.6,3.8
		c-0.2,1.2-0.3,2.5-0.5,3.9c-0.2,1.4-0.5,2.7-0.9,3.9c-0.5,1.2-1.2,2.2-2.2,2.9c-1,0.8-2.3,1.1-4.1,1.1c-0.9,0-1.7-0.2-2.5-0.7
		s-1.4-1-1.9-1.7s-1-1.5-1.3-2.4c-0.3-0.9-0.5-1.8-0.5-2.7c1-4.1,2.1-7.7,3-11c1-3.2,2-6.4,3-9.3c1-3,1.9-6,2.9-9
		c0.9-3,1.8-6.3,2.7-9.9c0.2-0.9,0.4-1.7,0.5-2.5s0.2-1.6,0.2-2.2c0-1.1-0.2-2-0.7-2.7c-0.5-0.7-1.2-1-2.4-1c-1.8,0-3.7,0.4-5.5,1.1
		c-1.8,0.7-3.8,1.9-5.9,3.5c-2.1,1.6-4.5,3.6-7.1,6c-2.6,2.4-5.6,5.3-9,8.7c-0.4,0.7-0.8,1.9-1.4,3.8c-0.6,1.8-1.2,3.8-1.8,5.9
		c-0.6,2.1-1.2,4-1.7,5.8c-0.5,1.8-0.8,3-0.9,3.6c-0.5,1.9-0.8,3.5-1,4.8c-0.2,1.3-0.3,2.4-0.5,3.5c-0.1,0.5-0.2,1.4-0.4,2.7
		c-0.2,1.2-0.5,2.5-1,3.8c-0.5,1.3-1.1,2.4-2,3.3c-0.9,1-2,1.5-3.4,1.5c-2.1,0-3.8-0.6-5.1-1.7c-1.3-1.1-2-2.5-2-4.3
		c0-0.3,0-0.6,0.1-0.9C45.4,101.8,45.5,101.6,45.5,101.2z"/>
	<path d="M197.3,102.8c0-1.3,0.2-2.9,0.5-4.7c0.3-1.8,0.5-4.1,0.5-6.8c-1.5,1.1-3.1,2.4-4.9,3.9c-1.8,1.5-3.7,2.9-5.6,4.3
		c-1.9,1.4-3.9,2.5-5.8,3.4c-1.9,0.9-3.7,1.4-5.4,1.4c-1.4,0-2.6-0.2-3.9-0.6c-1.2-0.4-2.3-0.9-3.1-1.6c-2.4-1.9-4.1-3.8-5.2-5.7
		c-1.1-1.9-1.6-4.1-1.6-6.6c0-1.1,0.1-2.3,0.3-3.5c0.2-1.2,0.5-2.6,0.9-4.2c1.7-7.1,4.7-13.7,8.8-19.8c4.2-6.1,9.3-11.2,15.5-15.5
		c2.4-1.7,4.8-2.7,7.2-3.2c2.4-0.5,4.8-0.7,7.1-0.7c1,0,2.2,0.1,3.5,0.2c1.3,0.1,2.4,0.3,3.5,0.4c1-0.2,1.9-0.4,2.5-0.5
		c0.7-0.1,1.3-0.1,2.1-0.1c1.4,0,2.5,0.2,3.4,0.5c0.9,0.4,1.6,0.8,2.2,1.5s0.9,1.3,1.2,2.1c0.2,0.8,0.4,1.6,0.4,2.5
		c0,1.2-0.2,2.3-0.5,3.3c-0.4,1.1-0.7,2.1-1.1,3.2l-8.9,35.6c-0.2,1.9-0.3,3.7-0.5,5.3s-0.4,3.1-0.8,4.5c-0.1,0.4-0.3,0.9-0.5,1.5
		c-0.2,0.6-0.5,1.2-1,1.8c-0.5,0.6-1,1-1.7,1.5c-0.7,0.4-1.6,0.6-2.6,0.6c-1.4,0-2.5-0.1-3.3-0.3c-0.8-0.2-1.5-0.4-1.9-0.8
		c-0.5-0.3-0.7-0.7-0.9-1.2S197.3,103.4,197.3,102.8z M174.8,82.4c-0.2,0.6-0.4,1.5-0.6,2.7c-0.2,1.2-0.3,2.3-0.3,3.5
		c0,1.2,0.2,2.3,0.5,3.3c0.4,1,1.1,1.5,2.4,1.5c1.9,0,3.7-0.4,5.3-1.3c1.6-0.8,3.2-1.8,4.6-3c1.9-1.6,3.9-3.3,5.9-5.3
		c2-2,3.9-4,5.7-6.2c1.8-2.2,3.4-4.4,4.7-6.7c1.4-2.3,2.4-4.5,3-6.8c0.4-1.3,0.7-2.8,0.9-4.5c0.2-1.7,0.4-3.2,0.4-4.6
		c0-0.6-0.1-1.2-0.4-1.7c-0.3-0.6-0.8-0.8-1.6-0.8c-2.2,0-4.4,0.4-6.7,1.3c-2.2,0.9-4.4,2-6.5,3.4c-2.1,1.4-4,3.1-5.9,5.1
		c-1.9,2-3.6,4.1-5.1,6.3c-1.5,2.2-2.9,4.5-4,6.9C176.3,77.8,175.4,80.1,174.8,82.4z"/>
	<path d="M235.4,136.9c-0.4,0-0.8-0.1-1.2-0.2c-0.5-0.2-0.9-0.4-1.3-0.7c-0.4-0.3-0.7-0.8-1-1.3c-0.3-0.5-0.4-1.1-0.4-1.9
		c0-0.5,0.1-1,0.2-1.6c0.4-1.5,0.7-2.7,1.1-3.6c0.4-0.9,1-1.7,1.8-2.3c0.8-0.6,1.8-1.2,3.1-1.6c1.3-0.4,3-0.9,5.1-1.3
		c1.4-0.3,2.6-0.6,3.8-0.9c1.2-0.3,2.2-0.8,2.9-1.3c2.3-2,4.2-4.1,5.8-6.3c1.6-2.2,3-4.4,4.1-6.7c1.1-2.3,2-4.7,2.8-7.1
		c0.7-2.4,1.5-4.9,2.1-7.4c0.3-0.9,0.5-1.7,0.7-2.7c0.2-0.9,0.5-2,0.8-3.1c-1.7,1.5-3.5,3-5.3,4.5c-1.8,1.5-3.7,2.8-5.7,4
		c-1.9,1.2-3.9,2.1-5.9,2.9c-2,0.7-4,1.1-6,1.1c-1.2,0-2.5-0.4-4-1.1c-1.5-0.7-2.9-1.7-4.2-2.8c-1.3-1.2-2.4-2.5-3.3-4.1
		c-0.9-1.6-1.4-3.2-1.4-4.9c0-1.1,0.1-2.3,0.4-3.5c0.3-1.3,0.5-2.4,0.7-3.4c0.7-3,1.8-5.9,3.2-8.7c1.4-2.8,3-5.5,4.9-8
		c1.8-2.5,3.9-4.9,6.1-7.2c2.2-2.3,4.5-4.4,6.9-6.3c3-2.4,6-4.2,8.9-5.3c3-1.1,6.1-1.6,9.5-1.6c1.4,0,2.7,0.1,4,0.2
		c1.3,0.1,2.5,0.4,3.7,0.8s2.2,1.1,3.2,1.9c1,0.8,1.9,1.9,2.7,3.3c0.2,0.3,0.3,0.7,0.4,1.1c0.1,0.4,0.2,0.8,0.2,1.1
		c0,0.4-0.1,1.3-0.3,2.7s-0.5,3.2-0.8,5.3c-0.3,2.1-0.7,4.4-1.2,7c-0.5,2.6-1,5.2-1.5,7.8c-0.5,2.6-1,5.2-1.5,7.8
		c-0.5,2.5-1,4.8-1.4,6.9c-0.8,3.6-1.7,7.2-2.9,11c-1.1,3.8-2.5,7.5-4.2,11.1c-1.6,3.6-3.6,7-5.8,10.2c-2.2,3.2-4.8,6-7.7,8.4
		c-2.9,2.4-6.2,4.3-9.9,5.7C244.1,136.2,240,136.9,235.4,136.9z M242.1,81c-0.1,0.5-0.3,1.1-0.4,1.7c-0.1,0.6-0.2,1.1-0.2,1.7
		c0,1,0.2,1.8,0.5,2.6c0.4,0.7,1,1.1,2,1.1c1.5,0,3.2-0.5,5.2-1.6c2-1.1,4-2.4,6-4c2-1.6,3.9-3.4,5.7-5.3c1.8-1.9,3.2-3.7,4.2-5.4
		c0.4-0.7,1-1.7,1.8-3c0.7-1.3,1.5-2.6,2.2-4.1c0.7-1.5,1.4-2.9,2-4.4c0.6-1.5,0.9-2.8,1.1-3.9c0-0.8-0.2-1.5-0.5-2.1
		c-0.3-0.7-0.6-1.6-0.8-2.7h-0.6c-1.1,0-2.3,0.3-3.7,1c-1.4,0.7-2.9,1.6-4.4,2.7c-1.6,1.1-3.1,2.4-4.7,3.8c-1.6,1.4-3.1,2.9-4.5,4.3
		c-1.4,1.5-2.7,2.9-3.8,4.3s-2,2.6-2.7,3.6c-0.9,1.5-1.8,3-2.6,4.5C243.2,77.2,242.6,79,242.1,81z"/>
	<path d="M296.2,79.6c0-1.9,0.5-3.6,1.6-4.9c1-1.4,2.4-2.3,4.1-2.7c0.5-1,1.3-2.3,2.3-4c1-1.7,2.3-3.5,3.9-5.5c1.5-2,3.3-4,5.2-6
		c2-2,4.1-3.8,6.5-5.5c2.4-1.6,4.9-3,7.6-4s5.6-1.6,8.7-1.6c2.6,0,4.9,0.3,6.8,0.9c1.9,0.6,3.5,1.5,4.8,2.6c1.3,1.1,2.2,2.5,2.8,4
		c0.6,1.6,0.9,3.2,0.9,5c0,1.5-0.2,3-0.6,4.4c-0.6,2.5-1.8,4.7-3.5,6.6c-1.7,1.9-3.7,3.6-6.1,5c-2.3,1.4-4.8,2.6-7.6,3.5
		s-5.5,1.7-8.2,2.4c-2.7,0.6-5.4,1.1-7.9,1.5c-2.5,0.3-4.7,0.6-6.6,0.8c-0.4,0.8-0.8,1.8-1,3.1c-0.3,1.2-0.4,2.4-0.4,3.6
		c0,2.6,1,4.6,3.1,6.1c2.1,1.4,4.9,2.2,8.6,2.2c2.1,0,4.1-0.2,6.1-0.7c1.9-0.5,3.8-1.1,5.5-1.8c1.7-0.7,3.4-1.6,4.9-2.4
		c1.5-0.9,2.9-1.7,4.2-2.6c1.6-1.1,3.2-2,4.6-2.7c1.5-0.7,2.8-1.1,3.9-1.1c1.1,0,1.8,0.3,2.2,0.8c0.3,0.6,0.5,1.2,0.5,1.8
		c0,0.4,0,0.7,0,1c0,0.3-0.1,0.6-0.1,0.8c-0.2,1.2-0.7,2.3-1.4,3.5c-0.7,1.2-1.5,2.2-2.6,3c-4.7,3.7-9.5,6.3-14.4,7.9
		c-4.9,1.6-10.2,2.4-15.8,2.4c-1.1,0-2.4-0.1-3.8-0.2c-1.5-0.1-3-0.4-4.6-0.8c-1.6-0.4-3.1-1-4.7-1.8c-1.5-0.8-2.9-1.8-4.1-3
		c-1.2-1.3-2.2-2.8-2.9-4.7c-0.7-1.8-1.1-4.1-1.1-6.7c0-2.1,0.3-4.5,0.9-7.1c-0.6-0.1-1.1-0.4-1.7-0.9
		C296.4,81.3,296.2,80.6,296.2,79.6z M338.5,60.9c0.1-0.2,0.1-0.4,0.1-0.6c0-0.2,0-0.4,0-0.6c0-1.2-0.5-2.1-1.4-2.7
		c-0.9-0.6-2-0.9-3.2-0.9c-2,0-3.9,0.5-5.8,1.6c-1.9,1-3.7,2.3-5.4,3.9c-1.7,1.6-3.2,3.2-4.5,5c-1.3,1.8-2.3,3.4-3,4.8
		c3.2-0.3,6.2-0.7,8.9-1.3s5.1-1.4,7.1-2.3c2-0.9,3.6-2,4.9-3.1C337.3,63.4,338.1,62.2,338.5,60.9z"/>
	<path d="M362.3,95.6c2.1-1.5,4.2-2.4,6.3-2.8c2.1-0.4,4.4-0.7,6.8-0.9l16.9-68.4c-0.2,0-0.7,0-1.5,0c-0.8,0-1.8-0.1-2.8-0.2
		c-1-0.1-2-0.3-3-0.6c-1-0.3-1.7-0.7-2.2-1.1c-0.2-0.3-0.5-0.7-0.8-1.3c-0.3-0.5-0.7-1.1-1-1.7s-0.6-1.2-0.8-1.9
		c-0.2-0.6-0.3-1.3-0.3-1.9c0-1,0.4-1.9,1.3-2.6c0.9-0.7,2-1.3,3.2-1.7c1.3-0.4,2.7-0.7,4.2-0.9c1.5-0.2,2.8-0.3,4.1-0.3
		c5.7,0,10.9,0.2,15.8,0.5c4.8,0.3,9.4,1.1,13.6,2.2s8.2,2.7,11.9,4.8c3.7,2.1,7.3,4.8,10.7,8.3c1.3,1.3,2.5,2.8,3.6,4.4
		s2.2,3.4,3,5.3c0.9,1.9,1.6,4,2.1,6.2s0.8,4.5,0.8,6.9c0,1.3-0.1,2.7-0.2,4.1c-0.1,1.4-0.3,2.7-0.5,3.7c-1.3,5.2-3.1,9.9-5.5,13.9
		c-2.4,4-5.1,7.6-8.3,10.8c-3.1,3.1-6.6,5.8-10.3,8.1c-3.7,2.3-7.6,4.3-11.6,6c-4,1.7-8.1,3.2-12.2,4.5c-4.1,1.3-8.2,2.4-12.1,3.4
		h0.1c-1.8,0.5-3.7,1-5.7,1.4c-2,0.4-4.1,0.7-6.2,1s-4.1,0.5-6.2,0.6c-2.1,0.2-4,0.2-5.8,0.2c-2,0-3.7-0.1-5-0.4
		c-1.4-0.2-2.4-0.6-3.3-1c-0.8-0.4-1.4-0.9-1.8-1.5c-0.4-0.5-0.5-1.1-0.5-1.8c0-0.9,0.3-1.8,0.8-2.8
		C360.3,97.3,361.1,96.4,362.3,95.6z M392,76.2c-0.5,2.3-1.1,4.7-1.7,7.1c-0.6,2.4-1.1,4.8-1.7,7.2l1.6-0.3c1-0.2,2.3-0.6,4-1
		c1.7-0.5,3.6-1,5.8-1.7c2.2-0.7,4.5-1.5,7-2.4c2.4-0.9,5-2.1,7.7-3.4c2.7-1.3,5.4-2.8,8.1-4.5c2.7-1.7,5.2-3.5,7.6-5.5
		c2.4-2,4.6-4.1,6.4-6.4c1.8-2.3,3.3-4.7,4.4-7.2s1.7-5.1,1.7-7.8c0-2.7-0.5-5.4-1.6-7.8c-1.1-2.5-2.5-4.7-4.4-6.8
		c-1.8-2.1-3.9-4-6.4-5.6c-2.4-1.6-4.9-3.1-7.5-4.2c-2.6-1.2-5.3-2.1-7.9-2.7c-2.7-0.6-5.2-0.9-7.6-0.9c-3.4,8.7-6.3,17.6-8.7,26.6
		C396.5,57.7,394.2,66.9,392,76.2z"/>
	<path d="M461.6,93.3c0.7-2.6,1.5-5.7,2.4-9.1s1.9-7.1,3-11c1.1-3.9,2.1-7.8,3.2-11.9c1.1-4.1,2.1-8,3-11.8c0-0.2,0.2-0.5,0.5-0.9
		c0.3-0.4,0.7-0.9,1.1-1.3c0.5-0.4,1.1-0.8,1.9-1.1c0.8-0.3,1.7-0.5,2.7-0.5c0.8,0,1.5,0.1,2.2,0.2c0.7,0.2,1.4,0.4,1.9,0.7
		c0.6,0.3,1,0.7,1.4,1.3c0.3,0.5,0.5,1.1,0.5,1.8c0,0.1,0,0.3,0,0.4c0,0.2,0,0.3-0.1,0.4l-1.9,7.2c-2.1,8-4.3,16.1-6.5,24.1
		c-2.2,8.1-4.3,16.2-6.4,24.3c-0.1,0.3-0.2,0.6-0.4,1c-0.2,0.4-0.4,0.8-0.7,1.2c-0.3,0.4-0.7,0.7-1.1,1c-0.5,0.3-1,0.4-1.6,0.4
		c-1.2,0-2.2-0.2-3.1-0.7c-0.9-0.5-1.7-1.1-2.3-1.8c-0.6-0.7-1.1-1.5-1.4-2.4s-0.5-1.7-0.5-2.4c0-0.2,0-0.4,0-0.6
		c0-0.2,0-0.4,0.1-0.6L461.6,93.3z M479.3,23.3c0.2-0.9,0.6-2.1,1.2-3.4s1.6-2.6,3.1-3.7c0.7-0.4,1.6-0.8,2.6-1.1
		c1-0.3,1.8-0.5,2.2-0.5c0.5,0,0.9,0.2,1.4,0.5c0.5,0.3,0.9,0.7,1.3,1c0.5,0.5,0.9,0.9,1.3,1.5c1.1,0.1,1.9,0.5,2.2,1.2
		c0.3,0.7,0.5,1.6,0.5,2.6c0,0.7-0.1,1.4-0.2,2c-0.1,0.6-0.2,1.1-0.3,1.4c-0.3,0.9-0.8,1.8-1.6,2.6c-0.8,0.8-1.6,1.5-2.6,2
		c-1,0.6-2,1-3.1,1.3c-1.1,0.3-2,0.5-2.8,0.5c-1,0-1.8-0.2-2.4-0.5c-0.6-0.4-1.3-1.1-2.1-2.3c-0.5-0.7-0.8-1.2-0.8-1.6
		c-0.1-0.4-0.1-0.7-0.1-1c0-0.5,0-0.9,0.1-1.3C479.1,24.1,479.2,23.7,479.3,23.3z"/>
	<path d="M509.5,111.9c-1.1,0-2.1-0.2-3-0.6c-0.9-0.4-1.6-1-2.2-1.8c-0.6-0.7-1.1-1.6-1.4-2.5c-0.3-0.9-0.5-2-0.5-3
		c0-0.8,0.1-1.6,0.3-2.5c0.2-0.9,0.5-2,0.8-3.3c0.1-0.6,0.3-1.5,0.6-2.6c0.3-1.2,0.5-2.5,0.8-4c0.3-1.5,0.6-3.1,0.8-4.7
		c0.3-1.7,0.6-3.3,0.8-4.9c0.2-1.6,0.4-3,0.6-4.4c0.1-1.4,0.2-2.5,0.2-3.4c0-0.6,0-1-0.1-1.1c-0.1-0.7-0.6-1.1-1.5-1.4
		c-0.9-0.2-1.8-0.5-2.8-0.8c-1-0.3-1.9-0.8-2.8-1.4s-1.3-1.7-1.3-3.2c0-1.2,0.3-2.4,0.8-3.4c0.6-1.1,1.3-1.8,2.2-2.3
		c1-0.5,2.2-0.8,3.5-0.8c1.3,0,2.6-0.2,3.8-0.4c0.7-0.1,1.2-0.5,1.5-1.3c0.3-0.8,0.5-1.5,0.7-2.2c0.5-2.1,1.1-4.3,1.8-6.7
		c0.6-2.4,1.4-4.9,2.2-7.4s1.8-4.9,2.8-7.3c1-2.4,2.2-4.6,3.4-6.6c2-2.7,4.2-5.3,6.5-7.7c2.3-2.4,4.8-4.5,7.4-6.3
		c2.6-1.8,5.4-3.2,8.4-4.2c3-1,6.1-1.5,9.4-1.5c4,0,7.3,0.7,9.8,2c2.5,1.4,4.6,3.4,6.2,6.1c0.4,0.6,0.6,1.3,0.7,1.9
		c0.1,0.7,0.2,1.3,0.2,2c0,1.2-0.2,2.4-0.5,3.4c-0.3,1.1-0.8,2-1.4,2.8c-0.6,0.8-1.3,1.4-2.1,1.9c-0.8,0.5-1.6,0.7-2.5,0.7
		c-1.2,0-2.2-0.2-2.8-0.7c-0.7-0.5-1.2-1.1-1.7-1.8c-0.4-0.7-0.8-1.5-1-2.4c-0.2-0.9-0.5-1.7-0.8-2.4c-0.3-0.7-0.7-1.3-1.2-1.8
		s-1.2-0.7-2.1-0.7c-0.9,0-1.9,0.1-3.1,0.3c-1.1,0.2-2.2,0.6-3.3,1.1c-2.8,1.4-5.3,3.1-7.6,4.8c-2.3,1.8-4.5,4-6.5,6.8
		c-2,2.8-3.9,6.1-5.5,10.1c-1.7,4-3.3,8.9-4.7,14.7c0,0.1-0.1,0.2-0.1,0.3c0,0.1-0.1,0.2-0.1,0.3c0,0.1,0.2,0.1,0.5,0.1
		c1.4,0,2.6-0.1,3.9-0.2c1.2-0.2,2.5-0.3,3.7-0.5c1.2-0.2,2.4-0.4,3.7-0.5c1.2-0.2,2.6-0.2,4-0.2c1,0,2,0,2.9,0.1
		c0.9,0.1,1.7,0.3,2.3,0.6c0.7,0.3,1.2,0.7,1.6,1.3c0.4,0.5,0.6,1.3,0.6,2.2c0,0.5-0.1,1.2-0.2,2c-0.2,0.8-0.4,1.6-0.7,2.3
		c-0.3,0.7-0.8,1.4-1.3,2c-0.5,0.6-1.2,0.9-1.9,1.1c-1.4,0.3-2.8,0.5-4.2,0.6c-1.4,0.2-3,0.3-4.7,0.5c-1.7,0.2-3.6,0.5-5.7,0.9
		c-2.1,0.4-4.4,0.9-7,1.7c-0.8,3.1-1.4,6.1-1.9,9.1c-0.4,3-0.8,6-1.1,9c-0.3,3-0.7,6-1,9c-0.4,3-0.9,6-1.7,9
		c-0.1,0.6-0.4,1.2-0.7,1.8c-0.3,0.6-0.7,1.1-1.2,1.6c-0.5,0.5-1,0.9-1.6,1.1S510.2,111.9,509.5,111.9z"/>
	<path d="M564.3,111.9c-1.1,0-2.1-0.2-3-0.6c-0.9-0.4-1.6-1-2.2-1.8c-0.6-0.7-1.1-1.6-1.4-2.5c-0.3-0.9-0.5-2-0.5-3
		c0-0.8,0.1-1.6,0.3-2.5c0.2-0.9,0.5-2,0.8-3.3c0.1-0.6,0.3-1.5,0.6-2.6c0.3-1.2,0.5-2.5,0.8-4c0.3-1.5,0.6-3.1,0.8-4.7
		c0.3-1.7,0.6-3.3,0.8-4.9c0.2-1.6,0.4-3,0.6-4.4c0.1-1.4,0.2-2.5,0.2-3.4c0-0.6,0-1-0.1-1.1c-0.1-0.7-0.6-1.1-1.5-1.4
		c-0.9-0.2-1.8-0.5-2.8-0.8c-1-0.3-1.9-0.8-2.8-1.4s-1.3-1.7-1.3-3.2c0-1.2,0.3-2.4,0.8-3.4c0.6-1.1,1.3-1.8,2.2-2.3
		c1-0.5,2.2-0.8,3.5-0.8c1.3,0,2.6-0.2,3.8-0.4c0.7-0.1,1.2-0.5,1.5-1.3c0.3-0.8,0.5-1.5,0.7-2.2c0.5-2.1,1.1-4.3,1.8-6.7
		c0.6-2.4,1.4-4.9,2.2-7.4s1.8-4.9,2.8-7.3c1-2.4,2.2-4.6,3.4-6.6c2-2.7,4.2-5.3,6.5-7.7c2.3-2.4,4.8-4.5,7.4-6.3
		c2.6-1.8,5.4-3.2,8.4-4.2c3-1,6.1-1.5,9.4-1.5c4,0,7.3,0.7,9.8,2c2.5,1.4,4.6,3.4,6.2,6.1c0.4,0.6,0.6,1.3,0.7,1.9
		c0.1,0.7,0.2,1.3,0.2,2c0,1.2-0.2,2.4-0.5,3.4c-0.3,1.1-0.8,2-1.4,2.8c-0.6,0.8-1.3,1.4-2.1,1.9c-0.8,0.5-1.6,0.7-2.5,0.7
		c-1.2,0-2.2-0.2-2.8-0.7c-0.7-0.5-1.2-1.1-1.7-1.8c-0.4-0.7-0.8-1.5-1-2.4c-0.2-0.9-0.5-1.7-0.8-2.4c-0.3-0.7-0.7-1.3-1.2-1.8
		s-1.2-0.7-2.1-0.7c-0.9,0-1.9,0.1-3.1,0.3c-1.1,0.2-2.2,0.6-3.3,1.1c-2.8,1.4-5.3,3.1-7.6,4.8c-2.3,1.8-4.5,4-6.5,6.8
		c-2,2.8-3.9,6.1-5.5,10.1c-1.7,4-3.3,8.9-4.7,14.7c0,0.1-0.1,0.2-0.1,0.3c0,0.1-0.1,0.2-0.1,0.3c0,0.1,0.2,0.1,0.5,0.1
		c1.4,0,2.6-0.1,3.9-0.2c1.2-0.2,2.5-0.3,3.7-0.5c1.2-0.2,2.4-0.4,3.7-0.5c1.2-0.2,2.6-0.2,4-0.2c1,0,2,0,2.9,0.1
		c0.9,0.1,1.7,0.3,2.3,0.6c0.7,0.3,1.2,0.7,1.6,1.3c0.4,0.5,0.6,1.3,0.6,2.2c0,0.5-0.1,1.2-0.2,2c-0.2,0.8-0.4,1.6-0.7,2.3
		c-0.3,0.7-0.8,1.4-1.3,2c-0.5,0.6-1.2,0.9-1.9,1.1c-1.4,0.3-2.8,0.5-4.2,0.6c-1.4,0.2-3,0.3-4.7,0.5c-1.7,0.2-3.6,0.5-5.7,0.9
		c-2.1,0.4-4.4,0.9-7,1.7c-0.8,3.1-1.4,6.1-1.9,9.1c-0.4,3-0.8,6-1.1,9c-0.3,3-0.7,6-1,9c-0.4,3-0.9,6-1.7,9
		c-0.1,0.6-0.4,1.2-0.7,1.8c-0.3,0.6-0.7,1.1-1.2,1.6c-0.5,0.5-1,0.9-1.6,1.1S565,111.9,564.3,111.9z"/>
</g>
<g>
	<path d="M51.6-184.9H63c6.2,0,9.3,2.2,9.3,6.5c0,3.1-1.1,5.4-3.3,7.1c-2.2,1.7-5.3,2.5-9.2,2.5H47.5c-5,0-8.7-1-11.3-2.9
		c-2.6-1.9-3.9-4.7-3.9-8.4c0-2.6,0.9-6.2,2.8-10.8l13.6-33.4c2.7-6.8,4.1-11.4,4.1-13.9c0-2-0.9-3.8-2.8-5.4
		c-1.8-1.6-4-2.4-6.4-2.4c-4.5,0-8.6,2-12.2,5.8c-3.7,3.9-5.5,8.3-5.5,13.1c0,2.8,0.6,5,1.9,6.5c1.2,1.5,3.5,3,6.8,4.3
		c2.9,1.2,4.4,3.2,4.4,6c0,2.6-1,4.8-2.9,6.5s-4.4,2.5-7.3,2.5c-5.6,0-10.5-2.4-14.5-7.2c-4-4.8-6-10.6-6-17.3
		c0-9.8,3.7-18.3,11.1-25.7c7.4-7.3,16-11,25.8-11c7.4,0,13.6,2.2,18.5,6.5c4.9,4.3,7.4,9.7,7.4,16.2c0,4.6-1.2,9.8-3.5,15.6
		L51.6-184.9z"/>
	<path d="M160.8-183.5h8c5.7,0,8.5,2,8.5,6c0,2.8-1,4.9-3,6.4c-2,1.5-4.8,2.3-8.4,2.3h-13.7c-3,0-5.4-0.8-7.2-2.4
		c-1.8-1.6-2.8-3.7-2.8-6.2c0-1.8,0.6-4.1,1.8-7.2l6.4-15.5c0.4-0.9,0.5-1.7,0.5-2.5c0-2.9-1.5-4.4-4.5-4.4c-2.3,0-4.6,1-6.8,3.1
		c-2.3,2.1-4.1,4.8-5.4,8.3l-7.6,18.7c-2.5,6-6.1,9.1-10.8,9.1c-1.8,0-3.4-0.6-4.7-1.8c-1.3-1.2-2-2.7-2-4.3c0-1.3,0.3-2.8,1-4.6
		l0.7-1.8l7.6-18.9c0.7-1.7,1-3,1-3.9c0-1-0.5-1.9-1.4-2.6c-0.9-0.7-2-1.1-3.2-1.1c-4.9,0-8.7,3.5-11.6,10.5L95.7-177
		c-2.5,6.1-6.1,9.1-10.8,9.1c-1.8,0-3.4-0.6-4.8-1.8c-1.3-1.2-2-2.6-2-4.4c0-1.4,0.3-2.9,1-4.6l0.7-1.8l13.5-33.1
		c1.9-4.6,4.7-7,8.5-7c3.9,0,6.4,1.8,7.3,5.5c3.1-2.6,5.6-4.3,7.5-5.2c1.9-0.9,4.3-1.3,7.1-1.3c6,0,10.6,2.6,13.6,7.9
		c5-5.3,10.7-7.9,17-7.9c4.3,0,7.9,1.3,10.9,3.8s4.4,5.6,4.4,9.2c0,2.3-0.5,4.7-1.5,7.1L160.8-183.5z"/>
	<path d="M226.2-183.5h7.4c5.7,0,8.5,2,8.5,6c0,2.8-1,4.9-3,6.5c-2,1.6-4.8,2.3-8.4,2.3H222c-3.9,0-6.5-1.5-7.9-4.5
		c-3.4,3-6.7,4.5-9.8,4.5h-7.7c-5,0-9-1.8-12-5.3c-3-3.5-4.6-8.2-4.6-13.9c0-8.7,3-16.4,9-23.2c6-6.8,12.7-10.2,20.3-10.2
		c5.8,0,10,2,12.6,6c2.3-3.4,5.2-5.1,8.9-5.1c2,0,3.6,0.6,5,1.9c1.3,1.3,2,2.8,2,4.7c0,1.3-0.4,2.8-1.1,4.5l-0.7,1.8L226.2-183.5z
		 M201.6-183.2h1.7c3.7,0,6.2-1.5,7.4-4.5l4.7-11.7c0.6-1.5,0.9-2.8,0.9-3.9c0-1.2-0.6-2.3-1.8-3.2c-1.2-0.9-2.6-1.4-4.3-1.4
		c-3.3,0-6.5,1.9-9.6,5.7c-3.1,3.8-4.7,7.8-4.7,11.9C196-185.5,197.9-183.2,201.6-183.2z"/>
	<path d="M284.5-166.9h8.1c5.7,0,8.6,2,8.6,6c0,2.7-1,4.9-3,6.5c-2,1.6-4.8,2.3-8.4,2.3h-11.2l-2.8,7c-6.9,16.9-17,25.4-30.2,25.4
		c-6.9,0-12.7-2.1-17.3-6.4c-4.6-4.3-6.9-9.6-6.9-16.1c0-4.2,1.1-8.1,3.3-11.8c2.2-3.7,5.3-6.6,9.2-8.8c4.8-2.7,11.2-4,19.3-4h14.5
		l2.1-5.3c-2.8,1.7-5.5,2.6-8,2.6c-4.8,0-8.7-1.7-11.7-5c-3-3.3-4.5-7.7-4.5-13.1c0-8.7,3-16.5,9.1-23.4
		c6.1-6.9,12.9-10.4,20.5-10.4c5.5,0,9.7,1.8,12.4,5.4c2.1-3.6,5.1-5.4,9-5.4c1.9,0,3.5,0.6,4.8,1.9c1.3,1.2,2,2.7,2,4.5
		c0,1.4-0.6,3.5-1.8,6.4L284.5-166.9z M261.5-152.1h-11.7c-4.1,0-7.2,0.9-9.4,2.6c-2.2,1.7-3.3,4.1-3.3,7.2c0,2.1,0.8,3.9,2.3,5.4
		c1.5,1.5,3.4,2.2,5.7,2.2c3.2,0,6.1-1.3,8.5-3.9C256-141.1,258.6-145.7,261.5-152.1z M275.7-187.2l5.5-13.4
		c0.5-1.1,0.7-2.1,0.7-2.8c0-1.4-0.6-2.5-1.8-3.4c-1.2-0.9-2.7-1.4-4.5-1.4c-3.2,0-6.3,1.9-9.3,5.6c-3,3.7-4.4,7.7-4.4,11.8
		c0,4.7,2.2,7.1,6.6,7.1C272.3-183.6,274.7-184.8,275.7-187.2z"/>
	<path d="M321.2-188.6c0,3.4,2.5,5.1,7.6,5.1H349c5.7,0,8.5,2,8.5,6c0,2.8-1,4.9-3,6.4c-2,1.5-4.8,2.3-8.4,2.3h-19.1
		c-7.1,0-12.5-1.8-16.3-5.3c-3.7-3.5-5.6-8.7-5.6-15.4c0-8.7,2.9-16.2,8.8-22.5c5.9-6.3,12.9-9.5,21-9.5c5.9,0,10.6,1.5,14.2,4.6
		s5.4,7.2,5.4,12.2c0,6.1-2.5,10.6-7.4,13.5c-2.8,1.7-6.9,2.5-12.3,2.5H321.2z M324.5-200.9h7.4c4.8,0,7.2-1.1,7-3.2
		c-0.1-2.4-1.7-3.6-4.7-3.6C330.1-207.7,326.9-205.4,324.5-200.9z"/>
	<path d="M462.6-244.9h-6.7H454c-5,0-7.5-2.2-7.5-6.5c0-2.8,1-5,3.1-6.9c2.1-1.8,4.6-2.8,7.5-2.8h1.8h19.8c13.3,0,23.4,3.2,30.5,9.5
		c7.1,6.3,10.6,15.4,10.6,27.3c0,18.1-6,34.6-18.1,49.7c-6.8,8.5-14.5,14.7-23.1,18.5c-8.6,3.9-18.9,5.8-30.9,5.8h-4.7l-0.8,1.9
		c-3.2,7-5.6,12-7.4,14.8c-1.8,2.8-4.1,5.6-7,8.2c-7.5,6.9-16.2,10.3-25.9,10.3c-8,0-14.6-2.4-19.8-7.1c-5.2-4.8-7.7-10.8-7.7-18.2
		c0-4.5,1.1-8.7,3.3-12.7c2.2-3.9,5.2-7,9-9.2c4.9-2.8,11.6-4.3,19.9-4.3h24L462.6-244.9z M424.2-150.3h-17.9
		c-8.8,0-13.3,3.1-13.3,9.4c0,2.6,1,4.7,2.9,6.5c1.9,1.8,4.3,2.6,7.1,2.6c4.1,0,8.1-1.6,11.8-4.9C418.6-140,421.7-144.5,424.2-150.3
		z M449.7-166.5h2.7c14,0,25.7-6.2,35.1-18.6c4.6-6,8.1-12.4,10.8-19.3c2.6-6.9,4-13.4,4-19.3c0-6.6-1.8-11.8-5.5-15.6
		c-3.7-3.8-8.7-5.7-15.1-5.7L449.7-166.5z"/>
	<path d="M540-183.5h7.6c5.7,0,8.5,2,8.5,6c0,2.8-1,4.9-3,6.4c-2,1.5-4.8,2.3-8.4,2.3H534c-4,0-7.1-0.8-9.4-2.4
		c-2.3-1.6-3.4-3.8-3.4-6.6c0-1.5,0.5-3.4,1.4-5.7l11.2-27.5l0.7-1.9c2.1-5.1,5.4-7.6,10-7.6c1.9,0,3.5,0.6,4.9,1.9
		c1.4,1.3,2.1,2.8,2.1,4.5c0,1.4-0.6,3.7-1.8,6.6L540-183.5z M548.9-242.1c2.6,0,4.8,0.9,6.7,2.7c1.8,1.8,2.7,4,2.7,6.7
		c0,2.6-0.9,4.8-2.7,6.7c-1.8,1.8-4,2.7-6.7,2.7c-2.6,0-4.8-0.9-6.7-2.7c-1.8-1.8-2.7-4-2.7-6.7c0-2.6,0.9-4.8,2.7-6.7
		C544.1-241.2,546.3-242.1,548.9-242.1z"/>
	<path d="M596-220.5h9.3c5.7,0,8.6,2,8.6,6c0,2.8-1,4.9-3,6.4c-2,1.5-4.8,2.3-8.4,2.3h-12.4l-30.4,74.9c-2.5,6.2-6,9.3-10.5,9.3
		c-2,0-3.7-0.6-5-1.8c-1.4-1.2-2-2.7-2-4.5c0-1.3,0.6-3.4,1.8-6.4l29-71.3h-4.6c-5.7,0-8.6-2-8.6-5.9c0-2.8,1-5,3-6.5
		c2-1.6,4.8-2.3,8.4-2.3h7.7l8.6-21.2c2.9-7,6.3-12,10.4-15c4-3,9.4-4.4,16.2-4.4h7.7c5.8,0,8.7,2,8.7,6c0,2.8-1,5-3,6.6
		c-2,1.6-4.8,2.4-8.5,2.4h-2c-3.8,0-6.8,0.8-9,2.3c-2.2,1.5-4,4.1-5.5,7.8L596-220.5z"/>
	<path d="M642.6-220.5h9.3c5.7,0,8.6,2,8.6,6c0,2.8-1,4.9-3,6.4c-2,1.5-4.8,2.3-8.4,2.3h-12.4l-30.4,74.9c-2.5,6.2-6,9.3-10.5,9.3
		c-2,0-3.7-0.6-5-1.8c-1.4-1.2-2-2.7-2-4.5c0-1.3,0.6-3.4,1.8-6.4l29-71.3h-4.6c-5.7,0-8.6-2-8.6-5.9c0-2.8,1-5,3-6.5
		c2-1.6,4.8-2.3,8.4-2.3h7.7l8.6-21.2c2.9-7,6.3-12,10.4-15c4-3,9.4-4.4,16.2-4.4h7.7c5.8,0,8.7,2,8.7,6c0,2.8-1,5-3,6.6
		c-2,1.6-4.8,2.4-8.5,2.4h-2c-3.8,0-6.8,0.8-9,2.3c-2.2,1.5-4,4.1-5.5,7.8L642.6-220.5z"/>
</g>
</svg>
