<?xml version="1.0" encoding="utf-8"?>
<svg version="1.1" id="レイヤー_1" xmlns="http://www.w3.org/2000/svg" xmlns:xlink="http://www.w3.org/1999/xlink" x="0px"
	 y="0px" viewBox="0 0 670.5 157.5" style="enable-background:new 0 0 670.5 157.5;" xml:space="preserve">
<g fill="white">
	<path d="M46.5,84.4h11.4c6.2,0,9.3,2.2,9.3,6.5c0,3.1-1.1,5.4-3.3,7.1c-2.2,1.7-5.3,2.5-9.2,2.5H42.4c-5,0-8.7-1-11.3-2.9
		c-2.6-1.9-3.9-4.7-3.9-8.4c0-2.6,0.9-6.2,2.8-10.8l13.6-33.4c2.7-6.8,4.1-11.4,4.1-13.9c0-2-0.9-3.8-2.8-5.4
		c-1.8-1.6-4-2.4-6.4-2.4c-4.5,0-8.6,2-12.2,5.8c-3.7,3.9-5.5,8.3-5.5,13.1c0,2.8,0.6,5,1.9,6.5c1.2,1.5,3.5,3,6.8,4.3
		c2.9,1.2,4.4,3.2,4.4,6c0,2.6-1,4.8-2.9,6.5c-2,1.7-4.4,2.5-7.3,2.5c-5.6,0-10.5-2.4-14.5-7.2c-4-4.8-6-10.6-6-17.3
		c0-9.8,3.7-18.3,11.1-25.7c7.4-7.3,16-11,25.8-11c7.4,0,13.6,2.2,18.5,6.5c4.9,4.3,7.4,9.7,7.4,16.2c0,4.6-1.2,9.8-3.5,15.6
		L46.5,84.4z"/>
	<path d="M155.7,85.9h8c5.7,0,8.5,2,8.5,6c0,2.8-1,4.9-3,6.4c-2,1.5-4.8,2.3-8.4,2.3h-13.7c-3,0-5.4-0.8-7.2-2.4
		c-1.8-1.6-2.8-3.7-2.8-6.2c0-1.8,0.6-4.1,1.8-7.2l6.4-15.5c0.4-0.9,0.5-1.7,0.5-2.5c0-2.9-1.5-4.4-4.5-4.4c-2.3,0-4.6,1-6.8,3.1
		c-2.3,2.1-4.1,4.8-5.4,8.3l-7.6,18.7c-2.5,6-6.1,9.1-10.8,9.1c-1.8,0-3.4-0.6-4.7-1.8c-1.3-1.2-2-2.7-2-4.3c0-1.3,0.3-2.8,1-4.6
		l0.7-1.8l7.6-18.9c0.7-1.7,1-3,1-3.9c0-1-0.5-1.9-1.4-2.6c-0.9-0.7-2-1.1-3.2-1.1c-4.9,0-8.7,3.5-11.6,10.5l-7.9,19.4
		c-2.5,6.1-6.1,9.1-10.8,9.1c-1.8,0-3.4-0.6-4.8-1.8c-1.3-1.2-2-2.6-2-4.4c0-1.4,0.3-2.9,1-4.6l0.7-1.8l13.5-33.1
		c1.9-4.6,4.7-7,8.5-7c3.9,0,6.4,1.8,7.3,5.5c3.1-2.6,5.6-4.3,7.5-5.2c1.9-0.9,4.3-1.3,7.1-1.3c6,0,10.6,2.6,13.6,7.9
		c5-5.3,10.7-7.9,17-7.9c4.3,0,7.9,1.3,10.9,3.8s4.4,5.6,4.4,9.2c0,2.3-0.5,4.7-1.5,7.1L155.7,85.9z"/>
	<path d="M221,85.9h7.4c5.7,0,8.5,2,8.5,6c0,2.8-1,4.9-3,6.5c-2,1.6-4.8,2.3-8.4,2.3h-8.7c-3.9,0-6.5-1.5-7.9-4.5
		c-3.4,3-6.7,4.5-9.8,4.5h-7.7c-5,0-9-1.8-12-5.3c-3-3.5-4.6-8.2-4.6-13.9c0-8.7,3-16.4,9-23.2c6-6.8,12.7-10.2,20.3-10.2
		c5.8,0,10,2,12.6,6c2.3-3.4,5.2-5.1,8.9-5.1c2,0,3.6,0.6,5,1.9c1.3,1.3,2,2.8,2,4.7c0,1.3-0.4,2.8-1.1,4.5l-0.7,1.8L221,85.9z
		 M196.5,86.2h1.7c3.7,0,6.2-1.5,7.4-4.5l4.7-11.7c0.6-1.5,0.9-2.8,0.9-3.9c0-1.2-0.6-2.3-1.8-3.2c-1.2-0.9-2.6-1.4-4.3-1.4
		c-3.3,0-6.5,1.9-9.6,5.7c-3.1,3.8-4.7,7.8-4.7,11.9C190.9,83.9,192.8,86.2,196.5,86.2z"/>
	<path d="M279.4,102.5h8.1c5.7,0,8.6,2,8.6,6c0,2.7-1,4.9-3,6.5c-2,1.6-4.8,2.3-8.4,2.3h-11.2l-2.8,7c-6.9,16.9-17,25.4-30.2,25.4
		c-6.9,0-12.7-2.1-17.3-6.4c-4.6-4.3-6.9-9.6-6.9-16.1c0-4.2,1.1-8.1,3.3-11.8c2.2-3.7,5.3-6.6,9.2-8.8c4.8-2.7,11.2-4,19.3-4h14.5
		l2.1-5.3c-2.8,1.7-5.5,2.6-8,2.6c-4.8,0-8.7-1.7-11.7-5c-3-3.3-4.5-7.7-4.5-13.1c0-8.7,3-16.5,9.1-23.4
		c6.1-6.9,12.9-10.4,20.5-10.4c5.5,0,9.7,1.8,12.4,5.4c2.1-3.6,5.1-5.4,9-5.4c1.9,0,3.5,0.6,4.8,1.9c1.3,1.2,2,2.7,2,4.5
		c0,1.4-0.6,3.5-1.8,6.4L279.4,102.5z M256.4,117.2h-11.7c-4.1,0-7.2,0.9-9.4,2.6c-2.2,1.7-3.3,4.1-3.3,7.2c0,2.1,0.8,3.9,2.3,5.4
		c1.5,1.5,3.4,2.2,5.7,2.2c3.2,0,6.1-1.3,8.5-3.9C250.9,128.3,253.5,123.7,256.4,117.2z M270.6,82.2l5.5-13.4
		c0.5-1.1,0.7-2.1,0.7-2.8c0-1.4-0.6-2.5-1.8-3.4c-1.2-0.9-2.7-1.4-4.5-1.4c-3.2,0-6.3,1.9-9.3,5.6c-3,3.7-4.4,7.7-4.4,11.8
		c0,4.7,2.2,7.1,6.6,7.1C267.2,85.8,269.6,84.6,270.6,82.2z"/>
	<path d="M316.1,80.8c0,3.4,2.5,5.1,7.6,5.1h20.1c5.7,0,8.5,2,8.5,6c0,2.8-1,4.9-3,6.4c-2,1.5-4.8,2.3-8.4,2.3h-19.1
		c-7.1,0-12.5-1.8-16.3-5.3c-3.7-3.5-5.6-8.7-5.6-15.4c0-8.7,2.9-16.2,8.8-22.5c5.9-6.3,12.9-9.5,21-9.5c5.9,0,10.6,1.5,14.2,4.6
		s5.4,7.2,5.4,12.2c0,6.1-2.5,10.6-7.4,13.5c-2.8,1.7-6.9,2.5-12.3,2.5H316.1z M319.4,68.5h7.4c4.8,0,7.2-1.1,7-3.2
		c-0.1-2.4-1.7-3.6-4.7-3.6C325,61.7,321.8,64,319.4,68.5z"/>
	<path d="M457.4,24.5h-6.7h-1.8c-5,0-7.5-2.2-7.5-6.5c0-2.8,1-5,3.1-6.9c2.1-1.8,4.6-2.8,7.5-2.8h1.8h19.8c13.3,0,23.4,3.2,30.5,9.5
		c7.1,6.3,10.6,15.4,10.6,27.3c0,18.1-6,34.6-18.1,49.7c-6.8,8.5-14.5,14.7-23.1,18.5c-8.6,3.9-18.9,5.8-30.9,5.8H438l-0.8,1.9
		c-3.2,7-5.6,12-7.4,14.8c-1.8,2.8-4.1,5.6-7,8.2c-7.5,6.9-16.2,10.3-25.9,10.3c-8,0-14.6-2.4-19.8-7.1c-5.2-4.8-7.7-10.8-7.7-18.2
		c0-4.5,1.1-8.7,3.3-12.7c2.2-3.9,5.2-7,9-9.2c4.9-2.8,11.6-4.3,19.9-4.3h24L457.4,24.5z M419,119.1h-17.9c-8.8,0-13.3,3.1-13.3,9.4
		c0,2.6,1,4.7,2.9,6.5c1.9,1.8,4.3,2.6,7.1,2.6c4.1,0,8.1-1.6,11.8-4.9C413.4,129.4,416.6,124.9,419,119.1z M444.6,102.9h2.7
		c14,0,25.7-6.2,35.1-18.6c4.6-6,8.1-12.4,10.8-19.3c2.6-6.9,4-13.4,4-19.3c0-6.6-1.8-11.8-5.5-15.6c-3.7-3.8-8.7-5.7-15.1-5.7
		L444.6,102.9z"/>
	<path d="M534.9,85.9h7.6c5.7,0,8.5,2,8.5,6c0,2.8-1,4.9-3,6.4c-2,1.5-4.8,2.3-8.4,2.3h-10.8c-4,0-7.1-0.8-9.4-2.4
		c-2.3-1.6-3.4-3.8-3.4-6.6c0-1.5,0.5-3.4,1.4-5.7l11.2-27.5l0.7-1.9c2.1-5.1,5.4-7.6,10-7.6c1.9,0,3.5,0.6,4.9,1.9
		c1.4,1.3,2.1,2.8,2.1,4.5c0,1.4-0.6,3.7-1.8,6.6L534.9,85.9z M543.8,27.3c2.6,0,4.8,0.9,6.7,2.7c1.8,1.8,2.7,4,2.7,6.7
		c0,2.6-0.9,4.8-2.7,6.7c-1.8,1.8-4,2.7-6.7,2.7c-2.6,0-4.8-0.9-6.7-2.7c-1.8-1.8-2.7-4-2.7-6.7c0-2.6,0.9-4.8,2.7-6.7
		C539,28.2,541.2,27.3,543.8,27.3z"/>
	<path d="M590.9,48.9h9.3c5.7,0,8.6,2,8.6,6c0,2.8-1,4.9-3,6.4c-2,1.5-4.8,2.3-8.4,2.3H585l-30.4,74.9c-2.5,6.2-6,9.3-10.5,9.3
		c-2,0-3.7-0.6-5-1.8c-1.4-1.2-2-2.7-2-4.5c0-1.3,0.6-3.4,1.8-6.4l29-71.3h-4.6c-5.7,0-8.6-2-8.6-5.9c0-2.8,1-5,3-6.5
		c2-1.6,4.8-2.3,8.4-2.3h7.7l8.6-21.2c2.9-7,6.3-12,10.4-15c4-3,9.4-4.4,16.2-4.4h7.7c5.8,0,8.7,2,8.7,6c0,2.8-1,5-3,6.6
		c-2,1.6-4.8,2.4-8.5,2.4h-2c-3.8,0-6.8,0.8-9,2.3c-2.2,1.5-4,4.1-5.5,7.8L590.9,48.9z"/>
	<path d="M637.4,48.9h9.3c5.7,0,8.6,2,8.6,6c0,2.8-1,4.9-3,6.4c-2,1.5-4.8,2.3-8.4,2.3h-12.4l-30.4,74.9c-2.5,6.2-6,9.3-10.5,9.3
		c-2,0-3.7-0.6-5-1.8c-1.4-1.2-2-2.7-2-4.5c0-1.3,0.6-3.4,1.8-6.4l29-71.3h-4.6c-5.7,0-8.6-2-8.6-5.9c0-2.8,1-5,3-6.5
		c2-1.6,4.8-2.3,8.4-2.3h7.7l8.6-21.2c2.9-7,6.3-12,10.4-15c4-3,9.4-4.4,16.2-4.4h7.7c5.8,0,8.7,2,8.7,6c0,2.8-1,5-3,6.6
		c-2,1.6-4.8,2.4-8.5,2.4h-2c-3.8,0-6.8,0.8-9,2.3c-2.2,1.5-4,4.1-5.5,7.8L637.4,48.9z"/>
</g>
</svg>
